<svg xmlns="http://www.w3.org/2000/svg" xmlns:xlink="http://www.w3.org/1999/xlink" width="100.0" height="100.0" viewBox="1.2916258138294436 -3.0213688366349136 7.543871161226389 6.6389576810093445" preserveAspectRatio="xMinYMin meet"><g transform="matrix(1,0,0,-1,0,0.5962200077395168)"><path fill-rule="evenodd" fill="#ff3333" stroke="#555555" stroke-width="0.15087742322452777" opacity="0.6" d="M 2.7404863883283923,0.9685920891109978 L 2.7298906999390593,0.8219579552038839 L 2.7175351703604456,0.6754604292182385 L 2.7032362894637765,0.5291433441296236 L 2.686276135870426,0.38311308931023075 L 2.664921234348724,0.2376693345542176 L 2.6372525979367505,0.09330133291659357 L 2.601050343970842,-0.04910497714839028 L 2.5531892374415417,-0.18816488290786682 L 2.4879207172993945,-0.31972456783038905 L 2.406222560269293,-0.4416485533208591 L 2.3096672196715367,-0.5522001739817964 L 2.2026734709711646,-0.6528579284535776 L 2.091682426426784,-0.7491780536484213 L 1.9817658953830501,-0.8470802878971855 L 1.87700139900897,-0.9510695855690161 L 1.7832734718732903,-1.0657882557452052 L 1.7044928515052415,-1.191500553692473 L 1.642620488198201,-1.326298818762473 L 1.5987685611955544,-1.4675029523582936 L 1.5731225021412427,-1.6129471631121386 L 1.571028449430421,-1.7606004258633112 L 1.5918740590526925,-1.9064164274253255 L 1.632061354706961,-2.047931035029966 L 1.691047995402423,-2.1825012933648544 L 1.7723984697082926,-2.3046975553982985 L 1.8718998997458884,-2.4106573737366785 L 1.9839461067724873,-2.50168134583581 L 2.1075084720455446,-2.5770467031791418 L 2.2409724004941514,-2.634747806194075 L 2.3815169902848363,-2.673998272700395 L 2.5253864874357967,-2.700847349071672 L 2.671144883099204,-2.7177427933389393 L 2.817751904715949,-2.7274201556770192 L 2.964697679823803,-2.7320232585573994 L 3.111743811999362,-2.7337140232835475 L 3.258729313676115,-2.7343536360501304 L 3.4057548098441766,-2.7341814041455526 L 3.552785004302247,-2.7332502886896775 L 3.699788817525011,-2.7320709921423236 L 3.8468000888824463,-2.7311251163482666 L 3.8468000888824463,-2.7311251163482666 L 3.993820122201975,-2.7304334975996376 L 4.1408385498985885,-2.7297023057362892 L 4.287853899969617,-2.7290284624338486 L 4.434869967419026,-2.729202130181715 L 4.581874729362758,-2.7308752829525136 L 4.728879464700798,-2.733045810279035 L 4.875885660326313,-2.734975713696656 L 5.022890235411622,-2.736838284233483 L 5.169900393877985,-2.738613459449254 L 5.316910737732275,-2.7401200984132354 L 5.463921327901231,-2.7412238110301064 L 5.6109409835675885,-2.7418581933840196 L 5.757958317813348,-2.7419662010339363 L 5.904974517478992,-2.7413364244627245 L 6.05198391493262,-2.7397521782682803 L 6.198976273131796,-2.7370421783416945 L 6.345938485248547,-2.7330426102729497 L 6.492833103602478,-2.7271567169407844 L 6.63956318849445,-2.718131457548123 L 6.785918501962593,-2.7044569194657724 L 6.931595285783018,-2.684978611543594 L 7.076362626631675,-2.6593064192216063 L 7.219906709922044,-2.6275724955532738 L 7.362001700884793,-2.589719907338453 L 7.502192655476386,-2.545258191735429 L 7.639883853939565,-2.493393159524534 L 7.7743235370280255,-2.433288949140201 L 7.904793573407583,-2.3643954638233504 L 8.03045489331394,-2.285982504598177 L 8.147644153836518,-2.1950113117019328 L 8.254291071001905,-2.0919133247170705 L 8.348205199992934,-1.9775220315645463 L 8.42750788411401,-1.8540215318729774 L 8.490797622993576,-1.7215890915315384 L 8.530858530224476,-1.5808316504587716 L 8.552122539022609,-1.4366093450659676 L 8.556094339454855,-1.2908428634326252 L 8.542722445437994,-1.145253355036187 L 8.511563553980231,-1.001882809776657 L 8.460780887005933,-0.8640024383273897 L 8.396060624300864,-0.7319156495935131 L 8.318585075911903,-0.6068047658733305 L 8.22958012828863,-0.4892436705754761 L 8.130188576742418,-0.3802808617613516 L 8.020715849296973,-0.2818081796055828 L 7.90038972162231,-0.19784367680638187 L 7.77180568148634,-0.12862882557679817 L 7.63653646860069,-0.07507553998683084 L 7.495484508027845,-0.03757683495417659 L 7.350665322529487,-0.018476883987354174 L 7.204065604530107,-0.020465219657606296 L 7.058375299539923,-0.03983724493431781 L 6.915238061098313,-0.07484875708321816 L 6.776025503103591,-0.12384288800478686 L 6.64176304031157,-0.18514135637300203 L 6.510536824661994,-0.25258498250294925 L 6.3787405132970365,-0.31858711769598386 L 6.240884273812284,-0.37137413245845696 L 6.096226843521826,-0.3995464085966993 L 5.949299016703392,-0.3945561008445165 L 5.809202137580836,-0.35249670515359177 L 5.6897496038577104,-0.26866988251038265 L 5.608162259874199,-0.14779929390234411 L 5.566341863855354,-0.008166868356506887 L 5.557155842533225,0.13742687288800157 L 5.579496051224605,0.28209111918357044 L 5.638984768825144,0.41606627320714235 L 5.727698204625683,0.5327561000112565 L 5.837946651305782,0.6296706241385785 L 5.960288105379901,0.7109321103278567 L 6.088180370598688,0.7820452547449668 L 6.218266393126999,0.8483258786587419 L 6.348878735186892,0.9135642437232665 L 6.478873983290138,0.9802286407475547 L 6.606808984956131,1.0507662552567785 L 6.731808373021074,1.1281997128757124 L 6.851900841609678,1.2132814778337395 L 6.963117996381497,1.3099345883450197 L 7.062409617532946,1.4190656871634968 L 7.148279554719042,1.5389217324865934 L 7.21903193401702,1.6681710105263823 L 7.273508236971063,1.8060789694708703 L 7.30799494982922,1.9501788841924328 L 7.318060560908378,2.0976340292497575 L 7.308938965994383,2.2444504514740093 L 7.281150164872129,2.3885919538541054 L 7.235216784672811,2.52816596679168 L 7.167547530030495,2.658562575239959 L 7.0850388563751,2.7794715893274393 L 6.9905179515408635,2.8908509876245865 L 6.885333384789686,2.9924416985499027 L 6.770926752865239,3.083965944880101 L 6.647337384696542,3.163554307143839 L 6.515420138571339,3.2290691087940626 L 6.37736443103011,3.2800630035578497 L 6.234841372835077,3.3154002685258885 L 6.089514019863147,3.33472377324316 L 5.942992270479368,3.338186208773453 L 5.7972655526172705,3.3249667098282063 L 5.653867216599624,3.296551083006557 L 5.513326025391009,3.256918783038344 L 5.374665463822996,3.2098257943855417 L 5.236195159030881,3.1608156120407687 L 5.096068054724352,3.1165544898888613 L 4.953623188902439,3.0807890707442827 L 4.809653992075091,3.051259657835135 L 4.664821810045064,3.025804666298252 L 4.519433146136456,3.0035134682837112 L 4.373653288867387,2.9840242439960822 L 4.227440848417713,2.9673521707473394 L 4.080836964421513,2.953129926276755 L 3.9340320217711766,2.9394986608385736 L 3.787336561347721,2.9225769822762975 L 3.641802904315055,2.8963177876030257 L 3.4983090980979306,2.8561555234728746 L 3.361173589849953,2.7997882335770754 L 3.233250943219544,2.7264569865347554 L 3.117656923914759,2.636288005300226 L 3.0201877083383235,2.5276014782854173 L 2.9414762766480913,2.4058722111407658 L 2.8792914319180616,2.2746651587206745 L 2.8337690726027893,2.137118339338495 L 2.803430008901791,1.9945170148202842 L 2.7854582295787713,1.8491557372818144 L 2.7755304909455867,1.7026651638408903 L 2.7685673222502607,1.555900134430026 L 2.762401170521157,1.4090488926281526 L 2.756218166816446,1.2621803960652858 L 2.7491730020535043,1.1153469262636955 L 2.7404863883283923,0.9685920891109978 L 3.405897924422402,1.0308762534413378 L 3.4123156323375117,1.1533485640591983 L 3.4178958031715596,1.2758538574653273 L 3.4230667828601096,1.398373271092539 L 3.428244888961008,1.5208772301648823 L 3.4336625664201263,1.64332872554227 L 3.4400563896187153,1.765637297097719 L 3.453130390076404,1.887064252077837 L 3.480919540217485,2.0052892415939048 L 3.535109427631896,2.11294260407872 L 3.625368967973288,2.19312282669354 L 3.73497718361387,2.2433602176546295 L 3.8536727752586093,2.2696037378944 L 3.9754651033881276,2.28191923282733 L 4.098546803713204,2.2909187211614825 L 4.222113188681422,2.301872802579422 L 4.345936402038742,2.3149188566696846 L 4.468469156870897,2.3297508438841668 L 4.590544890884158,2.3462650688421456 L 4.71220566641347,2.3643228825922855 L 4.833427793634763,2.3844021622938794 L 4.954180020305258,2.4065257073047186 L 5.074331727601274,2.431331235814335 L 5.193700113465291,2.4596543573167673 L 5.311977890125104,2.492104921414299 L 5.4288099212767955,2.5292839230585553 L 5.544391080578805,2.5699886796613343 L 5.659822446136828,2.6113104877609015 L 5.776800309715467,2.6477604932589043 L 5.8964980620260246,2.6717949057473125 L 6.01794939845623,2.678006926582262 L 6.13861777259534,2.6626522784774433 L 6.254249911406577,2.6244602195642805 L 6.360460320209466,2.5640320779136485 L 6.457564535495331,2.489559774080653 L 6.54424637000719,2.4027909428190997 L 6.611638313408228,2.3002759216497988 L 6.653913019118485,2.185349956774653 L 6.655873664924105,2.0633322507688403 L 6.623390324729388,1.9461569893178736 L 6.557938390429691,1.8434790408755002 L 6.473389295514951,1.7557225855195233 L 6.375801540440778,1.6821091536790536 L 6.270918095691398,1.6187681726101728 L 6.163152073912841,1.5601858762460685 L 6.053672256599594,1.5043394120842275 L 5.943449361195821,1.44931963047724 L 5.8332644246930085,1.3936791696886326 L 5.723898411733337,1.3361111742186274 L 5.616251302484154,1.2745777485552654 L 5.512585653923739,1.2077442034663943 L 5.41358979217769,1.1344169972381488 L 5.319705712286747,1.0549673283485328 L 5.231323924971943,0.9695407877591716 L 5.154486090233356,0.8737215817254368 L 5.085619248139325,0.772507304029025 L 5.024694635953897,0.6670191216829695 L 4.977894443136101,0.5544828058660216 L 4.941256071245364,0.4386737151250444 L 4.913395683627337,0.32021777593322925 L 4.90069791891443,0.1987894390871291 L 4.898439839613664,0.07646164621729133 L 4.905050092739015,-0.04586335337617456 L 4.925835870997246,-0.1668416183672154 L 4.95800844272954,-0.2848557213713209 L 4.9986770082195475,-0.40011085131001145 L 5.055094286104452,-0.5084155169332488 L 5.121834152320131,-0.6100447626792225 L 5.19637735822094,-0.7067740874252655 L 5.287119281552135,-0.788894598947004 L 5.384047917450083,-0.8632047801038032 L 5.488678599662389,-0.9281311136811595 L 5.601452769076981,-0.9774645450830592 L 5.7177084786849655,-1.0173961098038682 L 5.837401557091562,-1.0456124230710842 L 5.95977194011592,-1.0575694945357668 L 6.082637303290669,-1.0605036541865478 L 6.205693477222729,-1.053383896048353 L 6.32660006586837,-1.029914668238387 L 6.444943494803664,-0.9976816889778537 L 6.560234126795589,-0.9569622430334126 L 6.67198148530276,-0.9083668032576462 L 6.780886009896984,-0.8533698282592148 L 6.88919516998127,-0.7977872137840059 L 6.999654205002322,-0.7457958510926037 L 7.114173772249887,-0.7029011629853391 L 7.2343446549282096,-0.6790600076171853 L 7.357006820662811,-0.6833410579587561 L 7.475570775334151,-0.7151032516402358 L 7.581569119012605,-0.7767244915977447 L 7.674165909941686,-0.8571888767353126 L 7.754493828728016,-0.9496581898795375 L 7.820035391067864,-1.0528469608689521 L 7.86914837715585,-1.1644741922838269 L 7.8969687206552255,-1.2829586150757013 L 7.894099304324359,-1.4044397362139296 L 7.860527965419391,-1.5211484956917467 L 7.792437247729736,-1.6224643071972054 L 7.703961768792359,-1.7073446827618184 L 7.601524143713167,-1.7767159218661799 L 7.492776345828272,-1.8359021681679224 L 7.379897946176432,-1.886485453207881 L 7.263989440181095,-1.9291667836204478 L 7.146192125627532,-1.96490746393441 L 7.027035197909272,-1.994935900448426 L 6.906802446890443,-2.0197984417962522 L 6.785669881962376,-2.0394142256940055 L 6.663823304765679,-2.053718237124328 L 6.541545013252511,-2.0632832147981666 L 6.4190330643889535,-2.069588671165519 L 6.296475777650074,-2.0739153076533303 L 6.173871886590867,-2.0770528349907997 L 6.0512470208091536,-2.0792870676418893 L 5.9286122882000445,-2.080711221763929 L 5.805970202569062,-2.0814257599745485 L 5.68332576851731,-2.08156427737685 L 5.5606811681535095,-2.0812622623003274 L 5.438038420665754,-2.0806202389230743 L 5.315397982635025,-2.0796698565881813 L 5.192757113060234,-2.0784346485991048 L 5.070123982540785,-2.076973993633165 L 4.947489231756238,-2.075419748467966 L 4.824851991308302,-2.0738782492906855 L 4.702220350637944,-2.072198986861499 L 4.579588985317072,-2.0703537746433063 L 4.456950950933911,-2.0689579928002613 L 4.334310969696869,-2.0685235157694226 L 4.211667191715693,-2.068915546490796 L 4.089025156271887,-2.069551519072184 L 3.9663802303256745,-2.070152143001457 L 3.8437340259552,-2.0707321166992188 L 3.8437340259552,-2.0707321166992188 L 3.7210949623240657,-2.071499550694289 L 3.5984622384580636,-2.0724768831495806 L 3.475808370651428,-2.073399232876672 L 3.3531583960059126,-2.073955126958394 L 3.2305403900184126,-2.073864816861256 L 3.107863851995955,-2.073250895096115 L 2.985216001815755,-2.071875899728047 L 2.862676303769473,-2.0684420097941083 L 2.7404127348730416,-2.0614845830017914 L 2.6189111730806034,-2.0487716490758805 L 2.4994601989136,-2.0255479046625426 L 2.387793367649433,-1.9794364234613866 L 2.2942950958801256,-1.9038479253894496 L 2.2413820413116583,-1.7960893245108607 L 2.230324681242985,-1.676031806821313 L 2.257941167617504,-1.5572833713805556 L 2.3183734355626995,-1.4509133752001833 L 2.3995598219753296,-1.3583282567880945 L 2.490301290925036,-1.2750268903973625 L 2.5840171415095123,-1.1950788218706094 L 2.676901231084032,-1.1137917801451793 L 2.7666598624881256,-1.028554534942487 L 2.85165792620443,-0.9382343332700132 L 2.9308532129014258,-0.8430753652285408 L 3.0036834026219323,-0.7432623920518723 L 3.066936570324015,-0.6375936296688103 L 3.12235116892394,-0.5280943751189936 L 3.171297261849965,-0.4158109231997493 L 3.2138616192575418,-0.3009095539844907 L 3.249114239773346,-0.18353498489834952 L 3.278084398334481,-0.06442514789334025 L 3.302790010629991,0.055683107855710734 L 3.323602558512622,0.17664316829457072 L 3.34101375352796,0.2980233971965157 L 3.3557384436233724,0.41978349028830836 L 3.3683109852883657,0.5417782992839859 L 3.3794882562879525,0.6639085190570586 L 3.389493331914278,0.7861417200208568 L 3.3983189775467877,0.9084676187380014 L 3.405897924422402,1.0308762534413378 L 2.7404863883283923,0.9685920891109978 z" /></g></svg>